# xmcd CD database file
#
# Track frame offsets:
#	150
#	19799
#	31950
#
# Disc length: 630 seconds
#
# Revision: 1
# Processed by: cddbd v1.5.1PL0 Copyright (c) Steve Scherf et al.
# Submitted via: CDex 1.51
#
DISCID=19027403
DTITLE=THE HIGH-LOWS - 荒野はるかに/ズートロ
DYEAR=2004
DGENRE=Rock
TTITLE0=荒野はるかに
TTITLE1=ズートロ(69バージョン)
TTITLE2=64,928-キャサディ・キャサディ-
EXTD=YEAR: 2004
EXTT0=
EXTT1=
EXTT2=
PLAYORDER=
